# xmcd
#
# Track frame offsets: 
#        150
#        17641
#        34539
#        67878
#        98873
#
# Disc length: 1676 seconds
#
# Revision: 0
# Processed by: cddbd v1.5.2PL0 Copyright (c) Steve Scherf et al.
# Submitted via: ExactAudioCopy v0.95b4
#
DISCID=31068a05
DTITLE=Zenith DJ - The music is now
DYEAR=1900
DGENRE=
TTITLE0=Avex Radio Version
TTITLE1=Zenith vs Avex Radio Version
TTITLE2=Brooklyn Bounce Remix
TTITLE3=Zenith Club Version
TTITLE4=Zenith vs Avex Mix
EXTD=
EXTT0=
EXTT1=
EXTT2=
EXTT3=
EXTT4=
PLAYORDER=
